<svg width="50" height="50" viewBox="0 0 50 50" fill="none" xmlns="http://www.w3.org/2000/svg">
<circle cx="25" cy="25" r="25" fill="#DFFFF2"/>
<path d="M35 25C35 30.5229 30.5229 35 25 35C19.4771 35 15 30.5229 15 25C15 19.4771 19.4771 15 25 15C30.5229 15 35 19.4771 35 25ZM23.8433 30.2949L31.2627 22.8756C31.5146 22.6236 31.5146 22.2151 31.2627 21.9632L30.3503 21.0508C30.0983 20.7988 29.6898 20.7988 29.4379 21.0508L23.3871 27.1015L20.5621 24.2766C20.3102 24.0246 19.9017 24.0246 19.6497 24.2766L18.7373 25.189C18.4854 25.4409 18.4854 25.8494 18.7373 26.1013L22.9309 30.2949C23.1829 30.5469 23.5913 30.5469 23.8433 30.2949Z" fill="#44B78B"/>
</svg>
